<svg class="canvas" viewBox="0 0 1920 1080" preserveAspectRatio="xMaxYMid slice" xmlns="http://www.w3.org/2000/svg" version="1.1" xmlns:xlink="http://www.w3.org/1999/xlink" xmlns:svgjs="http://svgjs.dev/svgjs"><rect width="1920" height="1080" fill="hsl(247, 65%, 15%)"></rect><defs><linearGradient x1="0.5" y1="0" x2="0" y2="1" id="SvgjsLinearGradient1056"><stop stop-color="#5b288a" offset="0"></stop><stop stop-color="#14060d" offset="0.1"></stop></linearGradient><linearGradient x1="0.5" y1="0" x2="0" y2="1" id="SvgjsLinearGradient1057"><stop stop-color="#47288a" offset="0"></stop><stop stop-color="#14060f" offset="0.22857142857142856"></stop></linearGradient><linearGradient x1="0.5" y1="0" x2="0" y2="1" id="SvgjsLinearGradient1058"><stop stop-color="#28308a" offset="0"></stop><stop stop-color="#130614" offset="0.3571428571428571"></stop></linearGradient><linearGradient x1="0.5" y1="0" x2="0" y2="1" id="SvgjsLinearGradient1059"><stop stop-color="#c0c4f2" offset="0"></stop><stop stop-color="#ca42d7" offset="0.48571428571428565"></stop></linearGradient><linearGradient x1="0.5" y1="0" x2="0" y2="1" id="SvgjsLinearGradient1060"><stop stop-color="#dac0f2" offset="0"></stop><stop stop-color="#d7428a" offset="0.6142857142857142"></stop></linearGradient><linearGradient x1="0.5" y1="0" x2="0" y2="1" id="SvgjsLinearGradient1061"><stop stop-color="#c6c0f2" offset="0"></stop><stop stop-color="#d742c5" offset="0.7428571428571429"></stop></linearGradient><linearGradient x1="0.5" y1="0" x2="0" y2="1" id="SvgjsLinearGradient1062"><stop stop-color="#c6c0f2" offset="0"></stop><stop stop-color="#d742c5" offset="0.8714285714285713"></stop></linearGradient></defs><path d="M0,-537.4892715304433C47.8608514917759,-531.3024570362138,215.11511908273627,-517.3652511875702,287.1651089506554,-500.36838456506655C359.2150988185745,-483.3715179425629,368.03219729001427,-470.3039664753594,432.2999392075148,-435.50807179542136C496.5676811250153,-400.7121771154833,585.3855000741513,-317.4054651856958,672.7715604556587,-291.59301648543834C760.1576208371661,-265.7805677851809,871.5415747874727,-298.1557935557298,956.6163014965589,-280.6333795938765C1041.6910282056451,-263.1109656320232,1100.76088037013,-215.46432403972847,1183.2199207101764,-186.45853271431838C1265.6789610502228,-157.4527413889083,1372.0309316400098,-124.53762223655475,1451.3705435368367,-106.59863164141598C1530.7101554336637,-88.6596410462772,1581.1526826806114,-97.00948249531454,1659.2575920911386,-78.82458914348575C1737.3625015016657,-60.63969579165696,1876.5429320151898,-11.045157799283684,1920,2.5107284695567316L 1920 1080 L 0 1080 Z" fill="url(&quot;#SvgjsLinearGradient1056&quot;)"></path><path d="M0,-384.3182925603232C38.79820214618578,-367.4276534027716,138.3594474299161,-311.4856170740757,232.7892128771147,-282.9744576150139C327.2189783243133,-254.46329815595203,473.38809006590867,-232.08653820165352,566.5785926831916,-213.2513358059521C659.7690953004744,-194.41613341025067,703.4566953410756,-193.08211545995263,791.932228580812,-169.96324324080538C880.4077618205483,-146.84437102165813,996.1959650859183,-104.95157782900833,1097.43179212161,-74.53810249106863C1198.6676191573017,-44.12462715312893,1311.8701703314314,-14.697240395926993,1399.347190794962,12.51760878683281C1486.8242112584926,39.732457969592616,1535.518446701954,62.50935711573047,1622.2939149027936,88.75099260549018C1709.0693831036333,114.9926280952499,1870.3823191504657,156.4313502054076,1920,169.9674217253911L 1920 1080 L 0 1080 Z" fill="url(&quot;#SvgjsLinearGradient1057&quot;)"></path><path d="M0,-298.8875847610248C61.38663338071814,-289.7327237667629,254.64553043915907,-268.9984338363296,368.3198002843088,-243.95841879545338C481.9940701294586,-218.91840375457716,575.8368822604201,-181.2519845366065,682.0456190708984,-148.64749451576745C788.2543558813767,-116.0430044949284,912.088334806042,-92.24237040228853,1005.5722211471785,-48.331478670419116C1099.056107488315,-4.420586938549704,1146.1462355303947,73.98610844440628,1242.948937117718,114.81785587544901C1339.7516387050414,155.64960330649174,1473.5465868574042,170.8480079266781,1586.388430671118,196.6590059158372C1699.2302744848316,222.47000390499633,1864.3980717785196,257.51303749464273,1920,269.6838438104038L 1920 1080 L 0 1080 Z" fill="url(&quot;#SvgjsLinearGradient1058&quot;)"></path><path d="M0,-153.81175822401508C51.75826989732655,-144.05319374684504,197.0000527985042,-134.74876264176888,310.5496193839593,-95.26037136099482C424.09918596941435,-55.77198008022078,565.3149367327883,51.477494348114064,681.2973995127303,83.1185894606292C797.2798622926723,114.75968457314433,899.5786578299364,65.72600763456124,1006.4443960636115,94.58619931409595C1113.3101342972866,123.44639099363066,1216.467148664186,220.88493072329263,1322.4918289147804,256.2797395378375C1428.5165091653748,291.6745483523823,1543.007782386309,278.1607780188167,1642.5924775671788,306.9550522013651C1742.1771727480486,335.7493263839135,1873.765412927863,408.6969958945007,1920,429.0453846331278L 1920 1080 L 0 1080 Z" fill="url(&quot;#SvgjsLinearGradient1059&quot;)"></path><path d="M0,-65.12114753349469C50.46847173528278,-44.026870292621,218.3920939343708,26.24189614453192,302.8108304116967,61.44451591174746C387.22956688902264,96.647135678963,418.0099077319141,130.1373171819214,506.51241886395553,146.09457106979852C595.0149299959969,162.05182495767565,737.6986636432581,138.40607617442572,833.8258972039453,157.1880392390102C929.9531307646324,175.9700023035947,986.5938903220357,228.4199023414459,1083.2758202280784,258.7863494573054C1179.957750134121,289.1527965731649,1312.820246203024,305.5693808996148,1413.9174766402011,339.3867219341672C1515.0147070773783,373.2040629687196,1605.5121156245086,429.5845643854206,1689.8592028511418,461.6903956646198C1774.206290077775,493.796226943819,1881.6432004751903,520.2998239519054,1920,532.0217096093626L 1920 1080 L 0 1080 Z" fill="url(&quot;#SvgjsLinearGradient1060&quot;)"></path><path d="M0,65.16486164852356C40.088815675865185,75.85460068022162,155.57953098697766,93.94677878435633,240.5328940551911,129.30329583871196C325.4862571234045,164.6598128930676,420.0159983234416,237.75291439356036,509.72017840928055,277.3039639746574C599.4243584951196,316.8550135557544,674.6552003376212,341.9088032136365,778.7579745702249,366.6095933252941C882.8607488028285,391.3103834369517,1035.9288636177032,410.25323401605266,1134.3368238049027,425.508704644603C1232.7447839921022,440.7641752731533,1287.736475786902,435.0847084194661,1369.2057356934213,458.142417096596C1450.6749955999405,481.20012577372586,1531.3533391929222,527.4464540439659,1623.1523832440187,563.8549567073824C1714.951427295115,600.2634593707988,1870.5253972073365,657.8036870154763,1920,676.593433077095L 1920 1080 L 0 1080 Z" fill="url(&quot;#SvgjsLinearGradient1061&quot;)"></path><path d="M0,232.24474947319817C37.689709325027984,240.51208380322845,149.7722193773406,249.11608619259616,226.13825595016792,281.8487554533798C302.50429252299523,314.5814247141634,377.85092431218084,397.0582626561555,458.1962194369639,428.64076503789994C538.5415145617469,460.2232674196444,620.239291204096,447.4806139917958,708.2100266988663,471.3437697438465C796.1807621936365,495.2069254958972,899.565961482838,548.7879784493792,986.0206324055853,571.8196995502042C1072.4753033283325,594.8514206510291,1153.0831457845616,592.2870630443122,1226.9380522353497,609.5340963487963C1300.7929586861378,626.7811296532805,1351.339092724833,643.2723613064527,1429.1500711103138,675.3018993771093C1506.9610494957944,707.3314374477659,1611.9956010666187,771.2684688043399,1693.8039225482332,801.7113247727357C1775.6122440298477,832.1541807411314,1882.3006537580388,848.584416785026,1920,857.959035187484L 1920 1080 L 0 1080 Z" fill="url(&quot;#SvgjsLinearGradient1062&quot;)"></path></svg>